<?xml version="1.0" encoding="UTF-8" standalone="no"?>
<!-- Uploaded to: SVG Repo, www.svgrepo.com, Generator: SVG Repo Mixer Tools -->

<svg
   fill="#000000"
   width="697.99506"
   height="695.85901"
   viewBox="-1 0 16.577383 16.526651"
   class="cf-icon-svg"
   version="1.1"
   id="svg1"
   sodipodi:docname="map.svg"
   inkscape:version="1.4 (86a8ad7, 2024-10-11)"
   xmlns:inkscape="http://www.inkscape.org/namespaces/inkscape"
   xmlns:sodipodi="http://sodipodi.sourceforge.net/DTD/sodipodi-0.dtd"
   xmlns="http://www.w3.org/2000/svg"
   xmlns:svg="http://www.w3.org/2000/svg">
  <defs
     id="defs1">
    <filter
       inkscape:collect="always"
       style="color-interpolation-filters:sRGB"
       id="filter11"
       x="-0.013661805"
       y="-0.013661805"
       width="1.0273236"
       height="1.0273236">
      <feGaussianBlur
         inkscape:collect="always"
         stdDeviation="0.090133755"
         id="feGaussianBlur11" />
    </filter>
  </defs>
  <sodipodi:namedview
     id="namedview1"
     pagecolor="#ffffff"
     bordercolor="#666666"
     borderopacity="1.0"
     inkscape:showpageshadow="2"
     inkscape:pageopacity="0.0"
     inkscape:pagecheckerboard="0"
     inkscape:deskcolor="#d1d1d1"
     inkscape:zoom="0.31471892"
     inkscape:cx="432.13163"
     inkscape:cy="549.69685"
     inkscape:window-width="1128"
     inkscape:window-height="682"
     inkscape:window-x="1913"
     inkscape:window-y="-6"
     inkscape:window-maximized="1"
     inkscape:current-layer="svg1">
    <inkscape:page
       x="0"
       y="0"
       width="16.577383"
       height="16.526651"
       id="page2"
       margin="0"
       bleed="0" />
  </sodipodi:namedview>
  <g
     id="g2"
     style="fill:#000000"
     transform="translate(-1.4431792,-1.1020612)"
     inkscape:export-filename="map.svg"
     inkscape:export-xdpi="96"
     inkscape:export-ydpi="96">
    <g
       id="g12">
      <g
         id="g2-5"
         style="opacity:0.223325;mix-blend-mode:normal;fill:#ffffff;filter:url(#filter11)"
         transform="translate(0.52706275,-0.47633104)">
        <ellipse
           style="opacity:1;fill:#ffffff;fill-opacity:1;stroke:#000080;stroke-width:0.207444"
           id="path2-0"
           cx="8.608448"
           cy="-9.8904114"
           rx="6.7020545"
           ry="6.8972602"
           transform="scale(1,-1)" />
        <path
           d="M 16.417,9.583 A 7.917,7.917 0 1 1 8.5,1.666 7.917,7.917 0 0 1 16.417,9.583 Z M 13.954,12.89 12.192,9.536 a 0.647,0.647 0 0 0 -0.52,-0.314 h -0.48 a 7.274,7.274 0 0 1 -0.687,0.802 4.235,4.235 0 0 0 -1.058,1.54 0.925,0.925 0 0 1 -1.755,0 A 4.239,4.239 0 0 0 6.633,10.024 7.24,7.24 0 0 1 5.947,9.222 H 5.28 A 0.647,0.647 0 0 0 4.76,9.536 L 2.997,12.89 a 0.197,0.197 0 0 0 0.19,0.313 h 10.578 a 0.197,0.197 0 0 0 0.19,-0.313 z M 6.12,7.222 c 0,1.97 1.624,2.155 2.316,4.074 a 0.136,0.136 0 0 0 0.266,0 C 9.394,9.377 11.018,9.192 11.018,7.222 a 2.449,2.449 0 1 0 -4.898,0 z M 8.568,8.26 A 1.03,1.03 0 0 1 7.54,7.231 V 7.206 a 1.03,1.03 0 1 1 2.058,0 v 0.025 a 1.03,1.03 0 0 1 -1.029,1.03 z"
           id="path1-9"
           style="fill:#ffffff" />
      </g>
      <ellipse
         style="opacity:1;fill:#1f264f;fill-opacity:1;stroke:#000080;stroke-width:0.207444"
         id="path2"
         cx="8.608448"
         cy="-9.8904114"
         rx="6.7020545"
         ry="6.8972602"
         transform="scale(1,-1)" />
      <path
         d="M 16.417,9.583 A 7.917,7.917 0 1 1 8.5,1.666 7.917,7.917 0 0 1 16.417,9.583 Z M 13.954,12.89 12.192,9.536 a 0.647,0.647 0 0 0 -0.52,-0.314 h -0.48 a 7.274,7.274 0 0 1 -0.687,0.802 4.235,4.235 0 0 0 -1.058,1.54 0.925,0.925 0 0 1 -1.755,0 A 4.239,4.239 0 0 0 6.633,10.024 7.24,7.24 0 0 1 5.947,9.222 H 5.28 A 0.647,0.647 0 0 0 4.76,9.536 L 2.997,12.89 a 0.197,0.197 0 0 0 0.19,0.313 h 10.578 a 0.197,0.197 0 0 0 0.19,-0.313 z M 6.12,7.222 c 0,1.97 1.624,2.155 2.316,4.074 a 0.136,0.136 0 0 0 0.266,0 C 9.394,9.377 11.018,9.192 11.018,7.222 a 2.449,2.449 0 1 0 -4.898,0 z M 8.568,8.26 A 1.03,1.03 0 0 1 7.54,7.231 V 7.206 a 1.03,1.03 0 1 1 2.058,0 v 0.025 a 1.03,1.03 0 0 1 -1.029,1.03 z"
         id="path1"
         style="fill:#ffffff" />
    </g>
  </g>
</svg>
